<svg xmlns="http://www.w3.org/2000/svg" xmlns:xlink="http://www.w3.org/1999/xlink" width="500" zoomAndPan="magnify" viewBox="0 0 375 374.999991" height="500" preserveAspectRatio="xMidYMid meet" version="1.0"><rect x="-37.5" width="450" fill="#ffffff" y="-37.499999" height="449.999989" fill-opacity="1"/><rect x="-37.5" width="450" fill="#ffffff" y="-37.499999" height="449.999989" fill-opacity="1"/><rect x="-37.5" width="450" fill="#ffffff" y="-37.499999" height="449.999989" fill-opacity="1"/><path fill="#2d4356" d="M 8.929688 327.652344 C 8.929688 327.945312 8.898438 328.234375 8.84375 328.523438 C 8.785156 328.808594 8.699219 329.089844 8.589844 329.359375 C 8.476562 329.632812 8.339844 329.886719 8.175781 330.132812 C 8.011719 330.375 7.828125 330.601562 7.621094 330.808594 C 7.414062 331.015625 7.1875 331.199219 6.945312 331.363281 C 6.699219 331.527344 6.445312 331.664062 6.171875 331.777344 C 5.902344 331.886719 5.621094 331.972656 5.335938 332.03125 C 5.046875 332.085938 4.757812 332.117188 4.464844 332.117188 C 4.171875 332.117188 3.878906 332.085938 3.59375 332.03125 C 3.304688 331.972656 3.027344 331.886719 2.757812 331.777344 C 2.484375 331.664062 2.226562 331.527344 1.984375 331.363281 C 1.742188 331.199219 1.515625 331.015625 1.308594 330.808594 C 1.101562 330.601562 0.914062 330.375 0.753906 330.132812 C 0.589844 329.886719 0.453125 329.632812 0.339844 329.359375 C 0.226562 329.089844 0.144531 328.808594 0.0859375 328.523438 C 0.0273438 328.234375 0 327.945312 0 327.652344 C 0 327.359375 0.0273438 327.066406 0.0859375 326.78125 C 0.144531 326.492188 0.226562 326.214844 0.339844 325.941406 C 0.453125 325.671875 0.589844 325.414062 0.753906 325.171875 C 0.914062 324.929688 1.101562 324.703125 1.308594 324.496094 C 1.515625 324.289062 1.742188 324.101562 1.984375 323.941406 C 2.226562 323.777344 2.484375 323.640625 2.757812 323.527344 C 3.027344 323.414062 3.304688 323.332031 3.59375 323.273438 C 3.878906 323.214844 4.171875 323.1875 4.464844 323.1875 C 4.757812 323.1875 5.046875 323.214844 5.335938 323.273438 C 5.621094 323.332031 5.902344 323.414062 6.171875 323.527344 C 6.445312 323.640625 6.699219 323.777344 6.945312 323.941406 C 7.1875 324.101562 7.414062 324.289062 7.621094 324.496094 C 7.828125 324.703125 8.011719 324.929688 8.175781 325.171875 C 8.339844 325.414062 8.476562 325.671875 8.589844 325.941406 C 8.699219 326.214844 8.785156 326.492188 8.84375 326.78125 C 8.898438 327.066406 8.929688 327.359375 8.929688 327.652344 Z M 8.929688 327.652344 " fill-opacity="1" fill-rule="nonzero"/><path fill="#2d4356" d="M 24.554688 323.1875 L 17.855469 323.1875 C 17.5625 323.1875 17.273438 323.214844 16.984375 323.273438 C 16.699219 323.332031 16.417969 323.414062 16.148438 323.527344 C 15.878906 323.640625 15.621094 323.777344 15.375 323.941406 C 15.132812 324.101562 14.90625 324.289062 14.699219 324.496094 C 14.492188 324.703125 14.308594 324.929688 14.144531 325.171875 C 13.980469 325.414062 13.84375 325.671875 13.734375 325.941406 C 13.621094 326.214844 13.535156 326.492188 13.480469 326.78125 C 13.421875 327.066406 13.394531 327.359375 13.394531 327.652344 C 13.394531 327.945312 13.421875 328.234375 13.480469 328.523438 C 13.535156 328.808594 13.621094 329.089844 13.734375 329.359375 C 13.84375 329.632812 13.980469 329.886719 14.144531 330.132812 C 14.308594 330.375 14.492188 330.601562 14.699219 330.808594 C 14.90625 331.015625 15.132812 331.199219 15.375 331.363281 C 15.621094 331.527344 15.878906 331.664062 16.148438 331.777344 C 16.417969 331.886719 16.699219 331.972656 16.984375 332.03125 C 17.273438 332.085938 17.5625 332.117188 17.855469 332.117188 L 24.554688 332.117188 C 24.847656 332.117188 25.136719 332.085938 25.425781 332.03125 C 25.710938 331.972656 25.992188 331.886719 26.261719 331.777344 C 26.53125 331.664062 26.789062 331.527344 27.035156 331.363281 C 27.277344 331.199219 27.503906 331.015625 27.710938 330.808594 C 27.917969 330.601562 28.101562 330.375 28.265625 330.132812 C 28.429688 329.886719 28.566406 329.632812 28.679688 329.359375 C 28.789062 329.089844 28.875 328.808594 28.933594 328.523438 C 28.988281 328.234375 29.019531 327.945312 29.019531 327.652344 C 29.019531 327.359375 28.988281 327.066406 28.933594 326.78125 C 28.875 326.492188 28.789062 326.214844 28.679688 325.941406 C 28.566406 325.671875 28.429688 325.414062 28.265625 325.171875 C 28.101562 324.929688 27.917969 324.703125 27.710938 324.496094 C 27.503906 324.289062 27.277344 324.101562 27.035156 323.941406 C 26.789062 323.777344 26.53125 323.640625 26.261719 323.527344 C 25.992188 323.414062 25.710938 323.332031 25.425781 323.273438 C 25.136719 323.214844 24.847656 323.1875 24.554688 323.1875 Z M 357.144531 323.1875 L 350.445312 323.1875 C 350.152344 323.1875 349.863281 323.214844 349.574219 323.273438 C 349.289062 323.332031 349.007812 323.414062 348.738281 323.527344 C 348.46875 323.640625 348.210938 323.777344 347.964844 323.941406 C 347.722656 324.101562 347.496094 324.289062 347.289062 324.496094 C 347.082031 324.703125 346.898438 324.929688 346.734375 325.171875 C 346.570312 325.414062 346.433594 325.671875 346.320312 325.941406 C 346.210938 326.214844 346.125 326.492188 346.066406 326.78125 C 346.011719 327.066406 345.980469 327.359375 345.980469 327.652344 C 345.980469 327.945312 346.011719 328.234375 346.066406 328.523438 C 346.125 328.808594 346.210938 329.089844 346.320312 329.359375 C 346.433594 329.632812 346.570312 329.886719 346.734375 330.132812 C 346.898438 330.375 347.082031 330.601562 347.289062 330.808594 C 347.496094 331.015625 347.722656 331.199219 347.964844 331.363281 C 348.210938 331.527344 348.46875 331.664062 348.738281 331.777344 C 349.007812 331.886719 349.289062 331.972656 349.574219 332.03125 C 349.863281 332.085938 350.152344 332.117188 350.445312 332.117188 L 357.144531 332.117188 C 357.4375 332.117188 357.726562 332.085938 358.015625 332.03125 C 358.300781 331.972656 358.582031 331.886719 358.851562 331.777344 C 359.121094 331.664062 359.378906 331.527344 359.621094 331.363281 C 359.867188 331.199219 360.09375 331.015625 360.300781 330.808594 C 360.507812 330.601562 360.691406 330.375 360.855469 330.132812 C 361.015625 329.886719 361.15625 329.632812 361.265625 329.359375 C 361.378906 329.089844 361.464844 328.808594 361.519531 328.523438 C 361.578125 328.234375 361.605469 327.945312 361.605469 327.652344 C 361.605469 327.359375 361.578125 327.066406 361.519531 326.78125 C 361.464844 326.492188 361.378906 326.214844 361.265625 325.941406 C 361.15625 325.671875 361.015625 325.414062 360.855469 325.171875 C 360.691406 324.929688 360.507812 324.703125 360.300781 324.496094 C 360.09375 324.289062 359.867188 324.101562 359.621094 323.941406 C 359.378906 323.777344 359.121094 323.640625 358.851562 323.527344 C 358.582031 323.414062 358.300781 323.332031 358.015625 323.273438 C 357.726562 323.214844 357.4375 323.1875 357.144531 323.1875 Z M 357.144531 323.1875 " fill-opacity="1" fill-rule="nonzero"/><path fill="#2d4356" d="M 375 327.652344 C 375 327.945312 374.972656 328.234375 374.914062 328.523438 C 374.855469 328.808594 374.773438 329.089844 374.660156 329.359375 C 374.546875 329.632812 374.410156 329.886719 374.246094 330.132812 C 374.085938 330.375 373.898438 330.601562 373.691406 330.808594 C 373.484375 331.015625 373.257812 331.199219 373.015625 331.363281 C 372.773438 331.527344 372.515625 331.664062 372.242188 331.777344 C 371.972656 331.886719 371.695312 331.972656 371.40625 332.03125 C 371.117188 332.085938 370.828125 332.117188 370.535156 332.117188 C 370.242188 332.117188 369.953125 332.085938 369.664062 332.03125 C 369.378906 331.972656 369.097656 331.886719 368.828125 331.777344 C 368.554688 331.664062 368.300781 331.527344 368.054688 331.363281 C 367.8125 331.199219 367.585938 331.015625 367.378906 330.808594 C 367.171875 330.601562 366.988281 330.375 366.824219 330.132812 C 366.660156 329.886719 366.523438 329.632812 366.410156 329.359375 C 366.300781 329.089844 366.214844 328.808594 366.15625 328.523438 C 366.101562 328.234375 366.070312 327.945312 366.070312 327.652344 C 366.070312 327.359375 366.101562 327.066406 366.15625 326.78125 C 366.214844 326.492188 366.300781 326.214844 366.410156 325.941406 C 366.523438 325.671875 366.660156 325.414062 366.824219 325.171875 C 366.988281 324.929688 367.171875 324.703125 367.378906 324.496094 C 367.585938 324.289062 367.8125 324.101562 368.054688 323.941406 C 368.300781 323.777344 368.554688 323.640625 368.828125 323.527344 C 369.097656 323.414062 369.378906 323.332031 369.664062 323.273438 C 369.953125 323.214844 370.242188 323.1875 370.535156 323.1875 C 370.828125 323.1875 371.117188 323.214844 371.40625 323.273438 C 371.695312 323.332031 371.972656 323.414062 372.242188 323.527344 C 372.515625 323.640625 372.773438 323.777344 373.015625 323.941406 C 373.257812 324.101562 373.484375 324.289062 373.691406 324.496094 C 373.898438 324.703125 374.085938 324.929688 374.246094 325.171875 C 374.410156 325.414062 374.546875 325.671875 374.660156 325.941406 C 374.773438 326.214844 374.855469 326.492188 374.914062 326.78125 C 374.972656 327.066406 375 327.359375 375 327.652344 Z M 375 327.652344 " fill-opacity="1" fill-rule="nonzero"/><path fill="#004aad" d="M 263.738281 341.042969 L 245.191406 341.042969 C 244.628906 341.089844 244.09375 341.234375 243.585938 341.476562 C 243.078125 341.722656 242.636719 342.054688 242.25 342.46875 C 241.867188 342.882812 241.574219 343.351562 241.367188 343.875 C 241.164062 344.402344 241.0625 344.945312 241.0625 345.507812 C 241.0625 346.074219 241.164062 346.617188 241.367188 347.140625 C 241.574219 347.667969 241.867188 348.136719 242.25 348.550781 C 242.636719 348.964844 243.078125 349.292969 243.585938 349.539062 C 244.09375 349.785156 244.628906 349.929688 245.191406 349.972656 L 263.738281 349.972656 C 264.296875 349.929688 264.832031 349.785156 265.339844 349.539062 C 265.847656 349.292969 266.292969 348.964844 266.675781 348.550781 C 267.058594 348.136719 267.355469 347.667969 267.558594 347.140625 C 267.765625 346.617188 267.867188 346.074219 267.867188 345.507812 C 267.867188 344.945312 267.765625 344.402344 267.558594 343.875 C 267.355469 343.351562 267.058594 342.882812 266.675781 342.46875 C 266.292969 342.054688 265.847656 341.722656 265.339844 341.476562 C 264.832031 341.234375 264.296875 341.089844 263.738281 341.042969 Z M 129.808594 341.042969 L 111.261719 341.042969 C 110.703125 341.089844 110.167969 341.234375 109.660156 341.476562 C 109.152344 341.722656 108.707031 342.054688 108.324219 342.46875 C 107.941406 342.882812 107.644531 343.351562 107.441406 343.875 C 107.234375 344.402344 107.132812 344.945312 107.132812 345.507812 C 107.132812 346.074219 107.234375 346.617188 107.441406 347.140625 C 107.644531 347.667969 107.941406 348.136719 108.324219 348.550781 C 108.707031 348.964844 109.152344 349.292969 109.660156 349.539062 C 110.167969 349.785156 110.703125 349.929688 111.261719 349.972656 L 129.808594 349.972656 C 130.371094 349.929688 130.90625 349.785156 131.414062 349.539062 C 131.921875 349.292969 132.363281 348.964844 132.75 348.550781 C 133.132812 348.136719 133.425781 347.667969 133.632812 347.140625 C 133.835938 346.617188 133.9375 346.074219 133.9375 345.507812 C 133.9375 344.945312 133.835938 344.402344 133.632812 343.875 C 133.425781 343.351562 133.132812 342.882812 132.75 342.46875 C 132.363281 342.054688 131.921875 341.722656 131.414062 341.476562 C 130.90625 341.234375 130.371094 341.089844 129.808594 341.042969 Z M 232.144531 341.042969 L 142.855469 341.042969 C 142.5625 341.042969 142.273438 341.074219 141.984375 341.128906 C 141.699219 341.1875 141.417969 341.273438 141.148438 341.382812 C 140.878906 341.496094 140.621094 341.632812 140.375 341.796875 C 140.132812 341.960938 139.90625 342.144531 139.699219 342.351562 C 139.492188 342.558594 139.308594 342.785156 139.144531 343.027344 C 138.980469 343.273438 138.84375 343.53125 138.734375 343.800781 C 138.621094 344.070312 138.535156 344.351562 138.480469 344.636719 C 138.421875 344.925781 138.394531 345.214844 138.394531 345.507812 C 138.394531 345.800781 138.421875 346.09375 138.480469 346.378906 C 138.535156 346.667969 138.621094 346.945312 138.734375 347.21875 C 138.84375 347.488281 138.980469 347.746094 139.144531 347.988281 C 139.308594 348.234375 139.492188 348.457031 139.699219 348.664062 C 139.90625 348.871094 140.132812 349.058594 140.375 349.222656 C 140.621094 349.382812 140.878906 349.519531 141.148438 349.632812 C 141.417969 349.746094 141.699219 349.832031 141.984375 349.886719 C 142.273438 349.945312 142.5625 349.972656 142.855469 349.972656 L 178.4375 349.972656 L 178.4375 354.4375 L 160.714844 354.4375 C 160.421875 354.4375 160.128906 354.464844 159.84375 354.523438 C 159.554688 354.582031 159.277344 354.664062 159.003906 354.777344 C 158.734375 354.890625 158.476562 355.027344 158.234375 355.191406 C 157.992188 355.351562 157.765625 355.539062 157.558594 355.746094 C 157.351562 355.953125 157.164062 356.179688 157.003906 356.421875 C 156.839844 356.664062 156.703125 356.921875 156.589844 357.191406 C 156.476562 357.464844 156.394531 357.742188 156.335938 358.03125 C 156.277344 358.316406 156.25 358.609375 156.25 358.902344 C 156.25 359.195312 156.277344 359.484375 156.335938 359.773438 C 156.394531 360.058594 156.476562 360.339844 156.589844 360.609375 C 156.703125 360.882812 156.839844 361.136719 157.003906 361.382812 C 157.164062 361.625 157.351562 361.851562 157.558594 362.058594 C 157.765625 362.265625 157.992188 362.449219 158.234375 362.613281 C 158.476562 362.777344 158.734375 362.914062 159.003906 363.027344 C 159.277344 363.136719 159.554688 363.222656 159.84375 363.28125 C 160.128906 363.335938 160.421875 363.367188 160.714844 363.367188 L 216.519531 363.367188 C 216.8125 363.367188 217.101562 363.335938 217.390625 363.28125 C 217.675781 363.222656 217.957031 363.136719 218.226562 363.027344 C 218.496094 362.914062 218.753906 362.777344 219 362.613281 C 219.242188 362.449219 219.46875 362.265625 219.675781 362.058594 C 219.882812 361.851562 220.066406 361.625 220.230469 361.382812 C 220.394531 361.136719 220.53125 360.882812 220.640625 360.609375 C 220.753906 360.339844 220.839844 360.058594 220.894531 359.773438 C 220.953125 359.484375 220.980469 359.195312 220.980469 358.902344 C 220.980469 358.609375 220.953125 358.316406 220.894531 358.03125 C 220.839844 357.742188 220.753906 357.464844 220.640625 357.191406 C 220.53125 356.921875 220.394531 356.664062 220.230469 356.421875 C 220.066406 356.179688 219.882812 355.953125 219.675781 355.746094 C 219.46875 355.539062 219.242188 355.351562 219 355.191406 C 218.753906 355.027344 218.496094 354.890625 218.226562 354.777344 C 217.957031 354.664062 217.675781 354.582031 217.390625 354.523438 C 217.101562 354.464844 216.8125 354.4375 216.519531 354.4375 L 196.5625 354.4375 L 196.5625 349.972656 L 232.144531 349.972656 C 232.4375 349.972656 232.726562 349.945312 233.015625 349.886719 C 233.300781 349.832031 233.582031 349.746094 233.851562 349.632812 C 234.121094 349.519531 234.378906 349.382812 234.625 349.222656 C 234.867188 349.058594 235.09375 348.871094 235.300781 348.664062 C 235.507812 348.457031 235.691406 348.234375 235.855469 347.988281 C 236.015625 347.746094 236.15625 347.488281 236.265625 347.21875 C 236.378906 346.945312 236.464844 346.667969 236.519531 346.378906 C 236.578125 346.09375 236.605469 345.800781 236.605469 345.507812 C 236.605469 345.214844 236.578125 344.925781 236.519531 344.636719 C 236.464844 344.351562 236.378906 344.070312 236.265625 343.800781 C 236.15625 343.53125 236.015625 343.273438 235.855469 343.027344 C 235.691406 342.785156 235.507812 342.558594 235.300781 342.351562 C 235.09375 342.144531 234.867188 341.960938 234.621094 341.796875 C 234.378906 341.632812 234.121094 341.496094 233.851562 341.382812 C 233.582031 341.273438 233.300781 341.1875 233.015625 341.128906 C 232.726562 341.074219 232.4375 341.042969 232.144531 341.042969 Z M 246.652344 189.257812 C 246.652344 187.320312 246.558594 185.390625 246.367188 183.460938 C 246.175781 181.53125 245.894531 179.617188 245.515625 177.71875 C 245.136719 175.820312 244.667969 173.941406 244.105469 172.089844 C 243.542969 170.234375 242.890625 168.414062 242.148438 166.621094 C 241.40625 164.832031 240.582031 163.082031 239.667969 161.375 C 238.753906 159.667969 237.757812 158.007812 236.683594 156.394531 C 235.605469 154.785156 234.453125 153.230469 233.226562 151.734375 C 231.996094 150.234375 230.695312 148.800781 229.328125 147.433594 C 227.957031 146.0625 226.523438 144.761719 225.027344 143.535156 C 223.527344 142.304688 221.972656 141.152344 220.363281 140.074219 C 218.753906 139 217.09375 138.003906 215.382812 137.089844 C 213.675781 136.179688 211.925781 135.351562 210.136719 134.609375 C 208.347656 133.867188 206.523438 133.214844 204.671875 132.652344 C 202.816406 132.09375 200.941406 131.621094 199.039062 131.242188 C 197.140625 130.867188 195.226562 130.582031 193.296875 130.390625 C 191.371094 130.203125 189.4375 130.105469 187.5 130.105469 C 185.5625 130.105469 183.628906 130.203125 181.703125 130.390625 C 179.773438 130.582031 177.859375 130.867188 175.960938 131.242188 C 174.058594 131.621094 172.183594 132.09375 170.328125 132.652344 C 168.476562 133.214844 166.652344 133.867188 164.863281 134.609375 C 163.074219 135.351562 161.324219 136.179688 159.617188 137.089844 C 157.90625 138.003906 156.246094 139 154.636719 140.074219 C 153.027344 141.152344 151.472656 142.304688 149.972656 143.535156 C 148.476562 144.761719 147.042969 146.0625 145.671875 147.433594 C 144.304688 148.800781 143.003906 150.234375 141.773438 151.734375 C 140.546875 153.230469 139.394531 154.785156 138.316406 156.394531 C 137.242188 158.007812 136.246094 159.667969 135.332031 161.375 C 134.417969 163.082031 133.59375 164.832031 132.851562 166.621094 C 132.109375 168.414062 131.457031 170.234375 130.894531 172.089844 C 130.332031 173.941406 129.863281 175.820312 129.484375 177.71875 C 129.105469 179.617188 128.824219 181.53125 128.632812 183.460938 C 128.441406 185.390625 128.347656 187.320312 128.347656 189.257812 C 128.347656 191.195312 128.441406 193.128906 128.632812 195.058594 C 128.824219 196.984375 129.105469 198.898438 129.484375 200.800781 C 129.863281 202.699219 130.332031 204.574219 130.894531 206.429688 C 131.457031 208.285156 132.109375 210.105469 132.851562 211.894531 C 133.59375 213.683594 134.417969 215.433594 135.332031 217.144531 C 136.246094 218.851562 137.242188 220.511719 138.316406 222.121094 C 139.394531 223.734375 140.546875 225.285156 141.773438 226.785156 C 143.003906 228.28125 144.304688 229.714844 145.671875 231.085938 C 147.042969 232.457031 148.476562 233.753906 149.972656 234.984375 C 151.472656 236.210938 153.027344 237.367188 154.636719 238.441406 C 156.246094 239.519531 157.90625 240.511719 159.617188 241.425781 C 161.324219 242.339844 163.074219 243.167969 164.863281 243.90625 C 166.652344 244.648438 168.476562 245.300781 170.328125 245.863281 C 172.183594 246.425781 174.058594 246.894531 175.960938 247.273438 C 177.859375 247.652344 179.773438 247.9375 181.703125 248.125 C 183.628906 248.316406 185.5625 248.410156 187.5 248.410156 C 189.4375 248.410156 191.367188 248.3125 193.296875 248.121094 C 195.222656 247.929688 197.136719 247.640625 199.035156 247.261719 C 200.933594 246.882812 202.808594 246.414062 204.664062 245.847656 C 206.515625 245.285156 208.335938 244.632812 210.125 243.890625 C 211.914062 243.148438 213.664062 242.320312 215.371094 241.40625 C 217.078125 240.492188 218.738281 239.496094 220.347656 238.421875 C 221.957031 237.34375 223.511719 236.191406 225.007812 234.964844 C 226.503906 233.734375 227.9375 232.433594 229.308594 231.066406 C 230.675781 229.695312 231.976562 228.261719 233.203125 226.765625 C 234.433594 225.269531 235.585938 223.714844 236.664062 222.105469 C 237.738281 220.496094 238.734375 218.835938 239.648438 217.128906 C 240.5625 215.421875 241.390625 213.671875 242.132812 211.886719 C 242.875 210.097656 243.527344 208.273438 244.089844 206.421875 C 244.652344 204.570312 245.125 202.691406 245.503906 200.792969 C 245.882812 198.894531 246.167969 196.980469 246.359375 195.054688 C 246.550781 193.128906 246.648438 191.195312 246.652344 189.257812 Z M 137.277344 189.257812 C 137.277344 187.613281 137.355469 185.972656 137.519531 184.335938 C 137.679688 182.699219 137.921875 181.074219 138.242188 179.460938 C 138.5625 177.847656 138.960938 176.253906 139.4375 174.679688 C 139.917969 173.105469 140.46875 171.558594 141.101562 170.039062 C 141.730469 168.519531 142.433594 167.035156 143.207031 165.582031 C 143.984375 164.132812 144.828125 162.722656 145.742188 161.355469 C 146.65625 159.988281 147.632812 158.667969 148.675781 157.398438 C 149.71875 156.125 150.824219 154.910156 151.988281 153.746094 C 153.148438 152.582031 154.367188 151.480469 155.640625 150.4375 C 156.910156 149.390625 158.230469 148.414062 159.597656 147.5 C 160.964844 146.585938 162.375 145.742188 163.824219 144.964844 C 165.277344 144.191406 166.761719 143.488281 168.28125 142.859375 C 169.800781 142.230469 171.347656 141.675781 172.921875 141.199219 C 174.496094 140.722656 176.089844 140.320312 177.703125 140 C 179.316406 139.679688 180.941406 139.4375 182.578125 139.277344 C 184.214844 139.117188 185.855469 139.035156 187.5 139.035156 C 189.144531 139.035156 190.785156 139.117188 192.421875 139.277344 C 194.058594 139.4375 195.683594 139.679688 197.296875 140 C 198.910156 140.320312 200.503906 140.722656 202.078125 141.199219 C 203.652344 141.675781 205.199219 142.230469 206.71875 142.859375 C 208.238281 143.488281 209.722656 144.191406 211.175781 144.964844 C 212.625 145.742188 214.035156 146.585938 215.402344 147.5 C 216.769531 148.414062 218.089844 149.390625 219.359375 150.4375 C 220.632812 151.480469 221.851562 152.582031 223.011719 153.746094 C 224.175781 154.910156 225.28125 156.125 226.324219 157.398438 C 227.367188 158.667969 228.34375 159.988281 229.257812 161.355469 C 230.171875 162.722656 231.015625 164.132812 231.792969 165.582031 C 232.566406 167.035156 233.269531 168.519531 233.898438 170.039062 C 234.53125 171.558594 235.082031 173.105469 235.5625 174.679688 C 236.039062 176.253906 236.4375 177.847656 236.757812 179.460938 C 237.078125 181.074219 237.320312 182.699219 237.480469 184.335938 C 237.644531 185.972656 237.722656 187.613281 237.722656 189.257812 C 237.722656 190.902344 237.644531 192.542969 237.480469 194.183594 C 237.320312 195.820312 237.078125 197.445312 236.757812 199.058594 C 236.4375 200.671875 236.039062 202.265625 235.5625 203.839844 C 235.082031 205.410156 234.53125 206.957031 233.898438 208.476562 C 233.269531 210 232.566406 211.484375 231.792969 212.933594 C 231.015625 214.382812 230.171875 215.792969 229.257812 217.160156 C 228.34375 218.527344 227.367188 219.847656 226.324219 221.121094 C 225.28125 222.390625 224.175781 223.609375 223.011719 224.773438 C 221.851562 225.933594 220.632812 227.039062 219.359375 228.082031 C 218.089844 229.125 216.769531 230.105469 215.402344 231.019531 C 214.035156 231.933594 212.625 232.777344 211.175781 233.550781 C 209.722656 234.328125 208.238281 235.03125 206.71875 235.660156 C 205.199219 236.289062 203.652344 236.84375 202.078125 237.320312 C 200.503906 237.796875 198.910156 238.195312 197.296875 238.515625 C 195.683594 238.839844 194.058594 239.078125 192.421875 239.242188 C 190.785156 239.402344 189.144531 239.480469 187.5 239.480469 C 185.855469 239.480469 184.214844 239.402344 182.578125 239.242188 C 180.941406 239.078125 179.316406 238.839844 177.703125 238.515625 C 176.089844 238.195312 174.496094 237.796875 172.921875 237.320312 C 171.347656 236.84375 169.800781 236.289062 168.28125 235.660156 C 166.761719 235.03125 165.277344 234.328125 163.824219 233.550781 C 162.375 232.777344 160.964844 231.933594 159.597656 231.019531 C 158.230469 230.105469 156.910156 229.125 155.640625 228.082031 C 154.367188 227.039062 153.148438 225.933594 151.988281 224.773438 C 150.824219 223.609375 149.71875 222.390625 148.675781 221.121094 C 147.632812 219.847656 146.65625 218.527344 145.742188 217.160156 C 144.828125 215.792969 143.984375 214.382812 143.207031 212.933594 C 142.433594 211.484375 141.730469 210 141.101562 208.476562 C 140.46875 206.957031 139.917969 205.410156 139.4375 203.839844 C 138.960938 202.265625 138.5625 200.671875 138.242188 199.058594 C 137.921875 197.445312 137.679688 195.820312 137.519531 194.183594 C 137.355469 192.542969 137.277344 190.902344 137.277344 189.257812 Z M 137.277344 189.257812 " fill-opacity="1" fill-rule="nonzero"/><path fill="#2d4356" d="M 220.609375 189.257812 C 220.609375 188.175781 220.554688 187.09375 220.449219 186.015625 C 220.34375 184.933594 220.183594 183.863281 219.972656 182.800781 C 219.761719 181.734375 219.496094 180.6875 219.183594 179.648438 C 218.867188 178.609375 218.503906 177.589844 218.089844 176.589844 C 217.671875 175.585938 217.210938 174.609375 216.699219 173.652344 C 216.1875 172.695312 215.628906 171.765625 215.027344 170.863281 C 214.425781 169.964844 213.78125 169.09375 213.09375 168.253906 C 212.40625 167.417969 211.675781 166.613281 210.910156 165.847656 C 210.144531 165.082031 209.339844 164.355469 208.503906 163.667969 C 207.664062 162.976562 206.792969 162.332031 205.894531 161.730469 C 204.992188 161.128906 204.0625 160.570312 203.105469 160.058594 C 202.148438 159.550781 201.171875 159.085938 200.167969 158.671875 C 199.167969 158.257812 198.148438 157.890625 197.109375 157.578125 C 196.070312 157.261719 195.019531 157 193.957031 156.789062 C 192.894531 156.574219 191.824219 156.417969 190.742188 156.3125 C 189.664062 156.203125 188.582031 156.152344 187.5 156.152344 C 186.414062 156.152344 185.332031 156.203125 184.253906 156.3125 C 183.175781 156.417969 182.101562 156.578125 181.039062 156.789062 C 179.976562 157 178.925781 157.261719 177.886719 157.578125 C 176.851562 157.894531 175.832031 158.257812 174.828125 158.671875 C 173.828125 159.085938 172.847656 159.550781 171.890625 160.0625 C 170.933594 160.574219 170.007812 161.128906 169.105469 161.730469 C 168.203125 162.335938 167.332031 162.980469 166.496094 163.667969 C 165.65625 164.355469 164.855469 165.082031 164.085938 165.851562 C 163.320312 166.617188 162.59375 167.417969 161.90625 168.257812 C 161.21875 169.097656 160.574219 169.964844 159.96875 170.867188 C 159.367188 171.769531 158.8125 172.699219 158.300781 173.65625 C 157.789062 174.609375 157.324219 175.589844 156.910156 176.589844 C 156.496094 177.59375 156.128906 178.613281 155.816406 179.652344 C 155.5 180.6875 155.238281 181.738281 155.027344 182.800781 C 154.816406 183.867188 154.65625 184.9375 154.550781 186.015625 C 154.445312 187.097656 154.390625 188.175781 154.390625 189.261719 C 154.390625 190.347656 154.445312 191.429688 154.550781 192.507812 C 154.65625 193.585938 154.816406 194.65625 155.027344 195.722656 C 155.238281 196.785156 155.5 197.835938 155.816406 198.871094 C 156.132812 199.910156 156.496094 200.929688 156.910156 201.933594 C 157.324219 202.933594 157.789062 203.914062 158.300781 204.871094 C 158.8125 205.824219 159.367188 206.753906 159.972656 207.65625 C 160.574219 208.558594 161.21875 209.425781 161.90625 210.265625 C 162.59375 211.105469 163.320312 211.90625 164.089844 212.671875 C 164.855469 213.441406 165.65625 214.167969 166.496094 214.855469 C 167.335938 215.542969 168.203125 216.1875 169.105469 216.789062 C 170.007812 217.394531 170.9375 217.949219 171.890625 218.460938 C 172.847656 218.972656 173.828125 219.433594 174.828125 219.851562 C 175.832031 220.265625 176.851562 220.628906 177.890625 220.945312 C 178.925781 221.257812 179.976562 221.523438 181.039062 221.734375 C 182.105469 221.945312 183.175781 222.105469 184.253906 222.210938 C 185.332031 222.316406 186.414062 222.371094 187.5 222.371094 C 188.585938 222.371094 189.664062 222.316406 190.746094 222.207031 C 191.824219 222.101562 192.894531 221.941406 193.957031 221.726562 C 195.019531 221.515625 196.070312 221.25 197.105469 220.9375 C 198.144531 220.621094 199.164062 220.253906 200.164062 219.839844 C 201.167969 219.425781 202.144531 218.960938 203.101562 218.449219 C 204.054688 217.9375 204.984375 217.382812 205.886719 216.777344 C 206.789062 216.175781 207.65625 215.53125 208.496094 214.84375 C 209.332031 214.15625 210.136719 213.425781 210.902344 212.660156 C 211.667969 211.894531 212.394531 211.09375 213.082031 210.253906 C 213.769531 209.417969 214.417969 208.546875 215.019531 207.644531 C 215.621094 206.746094 216.179688 205.816406 216.6875 204.859375 C 217.199219 203.902344 217.664062 202.925781 218.078125 201.925781 C 218.496094 200.921875 218.859375 199.902344 219.175781 198.867188 C 219.492188 197.828125 219.753906 196.777344 219.96875 195.714844 C 220.179688 194.652344 220.339844 193.582031 220.445312 192.503906 C 220.554688 191.425781 220.609375 190.34375 220.609375 189.257812 Z M 163.320312 189.257812 C 163.320312 188.46875 163.359375 187.675781 163.4375 186.890625 C 163.511719 186.101562 163.628906 185.316406 163.785156 184.542969 C 163.9375 183.765625 164.132812 182.996094 164.359375 182.238281 C 164.589844 181.480469 164.859375 180.738281 165.160156 180.003906 C 165.464844 179.273438 165.800781 178.558594 166.175781 177.859375 C 166.546875 177.164062 166.957031 176.484375 167.394531 175.824219 C 167.835938 175.167969 168.308594 174.53125 168.808594 173.917969 C 169.3125 173.308594 169.84375 172.722656 170.402344 172.160156 C 170.964844 171.601562 171.550781 171.070312 172.160156 170.566406 C 172.773438 170.066406 173.410156 169.59375 174.066406 169.15625 C 174.726562 168.714844 175.40625 168.308594 176.101562 167.933594 C 176.800781 167.5625 177.515625 167.222656 178.246094 166.921875 C 178.980469 166.617188 179.722656 166.351562 180.480469 166.121094 C 181.238281 165.890625 182.007812 165.699219 182.785156 165.542969 C 183.5625 165.390625 184.34375 165.273438 185.132812 165.195312 C 185.917969 165.117188 186.710938 165.082031 187.5 165.082031 C 188.292969 165.082031 189.082031 165.121094 189.871094 165.195312 C 190.660156 165.273438 191.441406 165.390625 192.21875 165.546875 C 192.996094 165.699219 193.761719 165.890625 194.519531 166.121094 C 195.277344 166.351562 196.023438 166.617188 196.753906 166.921875 C 197.488281 167.222656 198.203125 167.5625 198.898438 167.9375 C 199.597656 168.308594 200.277344 168.714844 200.933594 169.15625 C 201.59375 169.597656 202.230469 170.066406 202.839844 170.570312 C 203.453125 171.074219 204.039062 171.605469 204.597656 172.164062 C 205.160156 172.722656 205.691406 173.308594 206.191406 173.921875 C 206.695312 174.535156 207.167969 175.167969 207.605469 175.828125 C 208.046875 176.488281 208.453125 177.164062 208.824219 177.863281 C 209.199219 178.5625 209.539062 179.277344 209.839844 180.007812 C 210.144531 180.738281 210.410156 181.484375 210.640625 182.242188 C 210.871094 183 211.0625 183.769531 211.214844 184.542969 C 211.371094 185.320312 211.488281 186.105469 211.5625 186.890625 C 211.640625 187.679688 211.679688 188.46875 211.679688 189.261719 C 211.679688 190.054688 211.640625 190.84375 211.5625 191.632812 C 211.488281 192.421875 211.371094 193.203125 211.214844 193.980469 C 211.0625 194.757812 210.871094 195.523438 210.640625 196.28125 C 210.410156 197.039062 210.144531 197.785156 209.839844 198.515625 C 209.535156 199.246094 209.199219 199.960938 208.824219 200.660156 C 208.453125 201.359375 208.046875 202.039062 207.605469 202.695312 C 207.164062 203.355469 206.695312 203.988281 206.191406 204.601562 C 205.6875 205.214844 205.15625 205.800781 204.597656 206.359375 C 204.039062 206.917969 203.453125 207.449219 202.839844 207.953125 C 202.226562 208.457031 201.59375 208.925781 200.933594 209.367188 C 200.277344 209.808594 199.597656 210.214844 198.898438 210.585938 C 198.199219 210.960938 197.484375 211.296875 196.753906 211.601562 C 196.023438 211.90625 195.277344 212.171875 194.519531 212.402344 C 193.761719 212.628906 192.992188 212.824219 192.21875 212.976562 C 191.441406 213.132812 190.660156 213.246094 189.871094 213.324219 C 189.082031 213.402344 188.292969 213.441406 187.5 213.441406 C 186.707031 213.441406 185.917969 213.402344 185.128906 213.324219 C 184.339844 213.246094 183.558594 213.132812 182.78125 212.976562 C 182.003906 212.824219 181.238281 212.628906 180.480469 212.402344 C 179.722656 212.171875 178.976562 211.902344 178.246094 211.601562 C 177.515625 211.296875 176.800781 210.960938 176.101562 210.585938 C 175.402344 210.214844 174.722656 209.804688 174.066406 209.367188 C 173.40625 208.925781 172.769531 208.453125 172.160156 207.953125 C 171.546875 207.449219 170.960938 206.917969 170.402344 206.359375 C 169.839844 205.796875 169.308594 205.210938 168.808594 204.601562 C 168.304688 203.988281 167.832031 203.351562 167.394531 202.695312 C 166.953125 202.035156 166.546875 201.355469 166.171875 200.660156 C 165.800781 199.960938 165.460938 199.246094 165.160156 198.511719 C 164.855469 197.78125 164.589844 197.035156 164.359375 196.277344 C 164.128906 195.519531 163.9375 194.753906 163.785156 193.976562 C 163.628906 193.199219 163.511719 192.417969 163.433594 191.628906 C 163.359375 190.839844 163.320312 190.050781 163.320312 189.257812 Z M 308.355469 167.773438 L 317.777344 170.027344 C 317.257812 166.558594 316.605469 163.117188 315.8125 159.703125 C 315.019531 156.289062 314.09375 152.910156 313.03125 149.566406 C 311.972656 146.226562 310.78125 142.933594 309.457031 139.6875 C 308.132812 136.441406 306.679688 133.25 305.105469 130.121094 C 303.527344 126.988281 301.824219 123.925781 300.003906 120.929688 C 298.183594 117.9375 296.246094 115.019531 294.191406 112.175781 C 292.136719 109.335938 289.972656 106.582031 287.699219 103.914062 C 285.425781 101.246094 283.046875 98.671875 280.570312 96.191406 C 278.089844 93.714844 275.515625 91.335938 272.847656 89.0625 C 270.179688 86.789062 267.425781 84.625 264.582031 82.570312 C 261.742188 80.515625 258.824219 78.578125 255.828125 76.753906 C 252.835938 74.933594 249.769531 73.234375 246.640625 71.65625 C 243.507812 70.078125 240.320312 68.628906 237.074219 67.304688 C 233.828125 65.980469 230.535156 64.789062 227.191406 63.726562 C 223.851562 62.664062 220.472656 61.738281 217.058594 60.945312 C 213.644531 60.15625 210.203125 59.5 206.734375 58.980469 L 208.988281 68.402344 C 212.054688 68.953125 215.101562 69.613281 218.121094 70.394531 C 221.140625 71.171875 224.125 72.066406 227.078125 73.070312 C 230.027344 74.078125 232.9375 75.195312 235.804688 76.421875 C 238.667969 77.652344 241.484375 78.988281 244.25 80.429688 C 247.015625 81.871094 249.71875 83.417969 252.367188 85.066406 C 255.015625 86.714844 257.59375 88.460938 260.109375 90.304688 C 262.621094 92.152344 265.0625 94.089844 267.429688 96.121094 C 269.792969 98.152344 272.082031 100.269531 274.285156 102.472656 C 276.492188 104.679688 278.609375 106.964844 280.640625 109.332031 C 282.671875 111.695312 284.609375 114.136719 286.453125 116.652344 C 288.296875 119.164062 290.042969 121.746094 291.695312 124.390625 C 293.34375 127.039062 294.886719 129.746094 296.328125 132.507812 C 297.773438 135.273438 299.109375 138.089844 300.335938 140.957031 C 301.5625 143.820312 302.679688 146.730469 303.6875 149.683594 C 304.695312 152.632812 305.585938 155.617188 306.367188 158.636719 C 307.144531 161.65625 307.808594 164.703125 308.355469 167.773438 Z M 66.644531 210.746094 L 57.222656 208.492188 C 57.742188 211.960938 58.394531 215.402344 59.1875 218.816406 C 59.980469 222.234375 60.90625 225.609375 61.96875 228.953125 C 63.027344 232.292969 64.21875 235.585938 65.542969 238.832031 C 66.867188 242.082031 68.320312 245.269531 69.894531 248.398438 C 71.472656 251.53125 73.171875 254.59375 74.996094 257.589844 C 76.816406 260.585938 78.753906 263.503906 80.808594 266.34375 C 82.863281 269.183594 85.027344 271.9375 87.300781 274.605469 C 89.574219 277.273438 91.953125 279.847656 94.429688 282.328125 C 96.910156 284.808594 99.484375 287.183594 102.152344 289.457031 C 104.820312 291.730469 107.574219 293.894531 110.417969 295.949219 C 113.257812 298.003906 116.175781 299.941406 119.171875 301.765625 C 122.164062 303.585938 125.230469 305.285156 128.359375 306.863281 C 131.492188 308.441406 134.679688 309.890625 137.925781 311.214844 C 141.171875 312.539062 144.464844 313.730469 147.808594 314.792969 C 151.148438 315.855469 154.527344 316.78125 157.941406 317.574219 C 161.355469 318.367188 164.796875 319.019531 168.265625 319.539062 L 166.011719 310.113281 C 162.945312 309.566406 159.898438 308.902344 156.878906 308.125 C 153.859375 307.34375 150.875 306.453125 147.921875 305.445312 C 144.972656 304.441406 142.0625 303.324219 139.195312 302.09375 C 136.332031 300.867188 133.515625 299.53125 130.75 298.089844 C 127.984375 296.648438 125.28125 295.101562 122.632812 293.453125 C 119.988281 291.804688 117.40625 290.058594 114.890625 288.210938 C 112.378906 286.367188 109.9375 284.429688 107.570312 282.398438 C 105.207031 280.367188 102.921875 278.25 100.714844 276.046875 C 98.511719 273.839844 96.390625 271.554688 94.363281 269.1875 C 92.332031 266.824219 90.394531 264.382812 88.546875 261.867188 C 86.703125 259.355469 84.957031 256.773438 83.308594 254.128906 C 81.660156 251.480469 80.113281 248.773438 78.671875 246.011719 C 77.226562 243.246094 75.894531 240.429688 74.664062 237.5625 C 73.4375 234.699219 72.320312 231.789062 71.3125 228.835938 C 70.304688 225.886719 69.414062 222.902344 68.632812 219.882812 C 67.855469 216.863281 67.191406 213.816406 66.644531 210.746094 Z M 206.734375 319.539062 C 210.203125 319.019531 213.644531 318.367188 217.058594 317.574219 C 220.472656 316.78125 223.851562 315.855469 227.191406 314.792969 C 230.535156 313.730469 233.828125 312.539062 237.074219 311.214844 C 240.320312 309.890625 243.507812 308.441406 246.640625 306.863281 C 249.769531 305.285156 252.835938 303.585938 255.828125 301.765625 C 258.824219 299.941406 261.742188 298.003906 264.582031 295.949219 C 267.425781 293.894531 270.179688 291.730469 272.847656 289.457031 C 275.515625 287.183594 278.089844 284.808594 280.570312 282.328125 C 283.046875 279.847656 285.425781 277.273438 287.699219 274.605469 C 289.972656 271.9375 292.136719 269.183594 294.191406 266.34375 C 296.246094 263.503906 298.183594 260.585938 300.003906 257.589844 C 301.824219 254.59375 303.527344 251.53125 305.105469 248.398438 C 306.679688 245.269531 308.132812 242.082031 309.457031 238.832031 C 310.78125 235.585938 311.972656 232.292969 313.03125 228.953125 C 314.09375 225.609375 315.019531 222.234375 315.8125 218.816406 C 316.605469 215.402344 317.257812 211.960938 317.777344 208.492188 L 308.355469 210.746094 C 307.808594 213.816406 307.144531 216.863281 306.367188 219.882812 C 305.585938 222.902344 304.695312 225.886719 303.6875 228.835938 C 302.679688 231.789062 301.5625 234.699219 300.335938 237.5625 C 299.105469 240.429688 297.773438 243.246094 296.328125 246.011719 C 294.886719 248.773438 293.339844 251.480469 291.691406 254.128906 C 290.042969 256.773438 288.296875 259.355469 286.453125 261.867188 C 284.609375 264.382812 282.667969 266.824219 280.636719 269.1875 C 278.609375 271.554688 276.488281 273.839844 274.285156 276.046875 C 272.078125 278.25 269.792969 280.367188 267.429688 282.398438 C 265.0625 284.429688 262.621094 286.367188 260.109375 288.210938 C 257.59375 290.058594 255.011719 291.804688 252.367188 293.453125 C 249.71875 295.101562 247.015625 296.648438 244.25 298.089844 C 241.484375 299.53125 238.667969 300.867188 235.804688 302.09375 C 232.9375 303.324219 230.027344 304.441406 227.078125 305.445312 C 224.125 306.453125 221.140625 307.34375 218.121094 308.125 C 215.101562 308.902344 212.054688 309.566406 208.988281 310.113281 Z M 166.011719 68.402344 L 168.269531 58.980469 C 164.800781 59.5 161.359375 60.15625 157.945312 60.945312 C 154.527344 61.738281 151.148438 62.664062 147.808594 63.726562 C 144.46875 64.785156 141.171875 65.980469 137.925781 67.300781 C 134.679688 68.625 131.492188 70.078125 128.359375 71.65625 C 125.230469 73.230469 122.167969 74.933594 119.171875 76.753906 C 116.175781 78.574219 113.257812 80.511719 110.417969 82.566406 C 107.578125 84.621094 104.820312 86.785156 102.152344 89.058594 C 99.484375 91.332031 96.910156 93.710938 94.433594 96.1875 C 91.953125 98.667969 89.578125 101.242188 87.300781 103.910156 C 85.027344 106.578125 82.863281 109.332031 80.808594 112.171875 C 78.753906 115.015625 76.816406 117.933594 74.996094 120.925781 C 73.171875 123.921875 71.472656 126.984375 69.894531 130.117188 C 68.316406 133.246094 66.867188 136.4375 65.542969 139.683594 C 64.21875 142.929688 63.027344 146.222656 61.964844 149.5625 C 60.90625 152.90625 59.976562 156.285156 59.1875 159.699219 C 58.394531 163.113281 57.738281 166.554688 57.222656 170.023438 L 66.644531 167.769531 C 67.191406 164.699219 67.851562 161.65625 68.632812 158.636719 C 69.410156 155.617188 70.304688 152.632812 71.3125 149.679688 C 72.316406 146.726562 73.433594 143.820312 74.664062 140.953125 C 75.890625 138.085938 77.226562 135.273438 78.667969 132.507812 C 80.109375 129.742188 81.65625 127.035156 83.304688 124.390625 C 84.953125 121.742188 86.699219 119.164062 88.542969 116.648438 C 90.390625 114.132812 92.328125 111.695312 94.359375 109.328125 C 96.390625 106.960938 98.507812 104.675781 100.710938 102.472656 C 102.917969 100.265625 105.203125 98.148438 107.570312 96.117188 C 109.9375 94.085938 112.375 92.148438 114.890625 90.304688 C 117.402344 88.457031 119.984375 86.710938 122.628906 85.0625 C 125.277344 83.414062 127.984375 81.871094 130.746094 80.425781 C 133.511719 78.984375 136.328125 77.648438 139.195312 76.421875 C 142.0625 75.191406 144.96875 74.074219 147.921875 73.070312 C 150.871094 72.0625 153.859375 71.171875 156.878906 70.390625 C 159.898438 69.613281 162.941406 68.949219 166.011719 68.402344 Z M 166.011719 68.402344 " fill-opacity="1" fill-rule="nonzero"/><path fill="#004aad" d="M 150.820312 131.953125 L 151.679688 128.355469 L 118.511719 107.992188 C 118.085938 107.730469 117.644531 107.507812 117.179688 107.320312 C 116.71875 107.132812 116.246094 106.988281 115.757812 106.878906 C 115.273438 106.773438 114.78125 106.707031 114.28125 106.679688 C 113.785156 106.65625 113.289062 106.671875 112.792969 106.730469 C 112.296875 106.789062 111.8125 106.890625 111.332031 107.027344 C 110.855469 107.167969 110.390625 107.347656 109.945312 107.5625 C 109.496094 107.78125 109.066406 108.035156 108.660156 108.324219 C 108.253906 108.613281 107.875 108.933594 107.523438 109.285156 C 107.171875 109.636719 106.851562 110.015625 106.5625 110.421875 C 106.273438 110.828125 106.019531 111.257812 105.804688 111.703125 C 105.585938 112.152344 105.40625 112.617188 105.265625 113.09375 C 105.128906 113.574219 105.027344 114.058594 104.96875 114.554688 C 104.914062 115.050781 104.894531 115.546875 104.921875 116.042969 C 104.945312 116.539062 105.011719 117.03125 105.117188 117.519531 C 105.226562 118.007812 105.371094 118.480469 105.558594 118.941406 C 105.746094 119.40625 105.96875 119.847656 106.230469 120.273438 L 126.597656 153.4375 L 130.191406 152.578125 C 131.257812 150.921875 132.386719 149.316406 133.585938 147.757812 L 113.839844 115.601562 L 145.996094 135.347656 C 147.554688 134.148438 149.160156 133.019531 150.820312 131.957031 Z M 145.996094 243.171875 L 113.839844 262.917969 L 133.585938 230.761719 C 132.386719 229.207031 131.257812 227.601562 130.195312 225.941406 L 126.597656 225.082031 L 106.230469 258.246094 C 105.96875 258.671875 105.746094 259.117188 105.558594 259.578125 C 105.371094 260.039062 105.226562 260.515625 105.117188 261 C 105.011719 261.488281 104.945312 261.980469 104.921875 262.476562 C 104.894531 262.976562 104.914062 263.472656 104.96875 263.964844 C 105.027344 264.460938 105.128906 264.949219 105.265625 265.425781 C 105.40625 265.902344 105.585938 266.367188 105.804688 266.816406 C 106.019531 267.265625 106.273438 267.691406 106.5625 268.097656 C 106.851562 268.503906 107.171875 268.882812 107.523438 269.234375 C 107.875 269.585938 108.253906 269.90625 108.660156 270.195312 C 109.066406 270.484375 109.496094 270.738281 109.941406 270.957031 C 110.390625 271.171875 110.855469 271.351562 111.332031 271.492188 C 111.8125 271.632812 112.296875 271.730469 112.792969 271.789062 C 113.289062 271.847656 113.785156 271.863281 114.28125 271.839844 C 114.78125 271.8125 115.273438 271.75 115.757812 271.640625 C 116.246094 271.535156 116.71875 271.386719 117.179688 271.199219 C 117.644531 271.011719 118.085938 270.789062 118.511719 270.527344 L 151.679688 250.164062 L 150.820312 246.570312 C 149.160156 245.503906 147.554688 244.371094 145.996094 243.171875 Z M 261.160156 271.847656 C 261.953125 271.847656 262.734375 271.746094 263.5 271.535156 C 264.265625 271.328125 264.992188 271.023438 265.679688 270.621094 C 266.363281 270.222656 266.984375 269.738281 267.539062 269.171875 C 268.09375 268.601562 268.566406 267.972656 268.953125 267.28125 C 269.34375 266.585938 269.632812 265.855469 269.824219 265.085938 C 270.019531 264.316406 270.105469 263.53125 270.089844 262.738281 C 270.074219 261.945312 269.953125 261.167969 269.730469 260.40625 C 269.507812 259.644531 269.1875 258.925781 268.773438 258.246094 L 248.40625 225.082031 L 244.808594 225.941406 C 243.746094 227.597656 242.617188 229.207031 241.417969 230.761719 L 261.160156 262.917969 L 229.003906 243.167969 C 227.445312 244.371094 225.839844 245.503906 224.179688 246.566406 L 223.320312 250.160156 L 256.488281 270.527344 C 257.921875 271.40625 259.476562 271.847656 261.160156 271.847656 Z M 244.808594 152.578125 L 248.402344 153.4375 L 268.773438 120.273438 C 269.03125 119.847656 269.257812 119.40625 269.445312 118.941406 C 269.628906 118.480469 269.777344 118.007812 269.882812 117.519531 C 269.992188 117.03125 270.058594 116.539062 270.082031 116.042969 C 270.105469 115.546875 270.089844 115.050781 270.03125 114.554688 C 269.972656 114.058594 269.875 113.574219 269.734375 113.09375 C 269.59375 112.617188 269.417969 112.152344 269.199219 111.703125 C 268.980469 111.257812 268.730469 110.828125 268.441406 110.421875 C 268.152344 110.015625 267.832031 109.636719 267.476562 109.285156 C 267.125 108.933594 266.746094 108.613281 266.339844 108.324219 C 265.933594 108.035156 265.507812 107.78125 265.058594 107.5625 C 264.609375 107.347656 264.148438 107.167969 263.667969 107.027344 C 263.191406 106.890625 262.703125 106.789062 262.210938 106.730469 C 261.714844 106.671875 261.21875 106.65625 260.71875 106.679688 C 260.222656 106.707031 259.730469 106.773438 259.242188 106.878906 C 258.757812 106.988281 258.28125 107.132812 257.820312 107.320312 C 257.359375 107.507812 256.914062 107.730469 256.492188 107.992188 L 223.324219 128.355469 L 224.183594 131.949219 C 225.839844 133.015625 227.449219 134.148438 229.003906 135.347656 L 261.160156 115.597656 L 241.414062 147.757812 C 242.613281 149.3125 243.742188 150.917969 244.804688 152.578125 Z M 244.808594 152.578125 " fill-opacity="1" fill-rule="nonzero"/><path fill="#2d4356" d="M 51.496094 197.945312 L 124.660156 215.4375 C 123.308594 212.203125 122.21875 208.882812 121.386719 205.476562 L 53.570312 189.257812 L 121.386719 173.042969 C 122.21875 169.640625 123.308594 166.316406 124.660156 163.082031 L 51.496094 180.574219 C 51.011719 180.691406 50.539062 180.847656 50.082031 181.042969 C 49.621094 181.238281 49.183594 181.46875 48.765625 181.738281 C 48.34375 182.003906 47.949219 182.308594 47.582031 182.640625 C 47.210938 182.976562 46.875 183.339844 46.566406 183.730469 C 46.257812 184.121094 45.984375 184.535156 45.742188 184.972656 C 45.503906 185.40625 45.304688 185.863281 45.140625 186.332031 C 44.976562 186.804688 44.851562 187.285156 44.769531 187.773438 C 44.6875 188.265625 44.644531 188.761719 44.644531 189.257812 C 44.644531 189.757812 44.6875 190.25 44.769531 190.742188 C 44.851562 191.234375 44.976562 191.714844 45.140625 192.183594 C 45.304688 192.65625 45.503906 193.109375 45.742188 193.546875 C 45.984375 193.984375 46.257812 194.398438 46.566406 194.789062 C 46.875 195.179688 47.210938 195.542969 47.582031 195.875 C 47.949219 196.210938 48.34375 196.511719 48.765625 196.78125 C 49.183594 197.050781 49.621094 197.28125 50.082031 197.476562 C 50.539062 197.671875 51.011719 197.824219 51.496094 197.941406 Z M 171.285156 123.144531 L 187.5 55.335938 L 203.714844 123.148438 C 207.121094 123.980469 210.441406 125.074219 213.679688 126.425781 L 196.183594 53.253906 C 196.066406 52.769531 195.910156 52.296875 195.714844 51.839844 C 195.523438 51.382812 195.289062 50.941406 195.023438 50.523438 C 194.753906 50.105469 194.453125 49.710938 194.117188 49.339844 C 193.785156 48.972656 193.421875 48.632812 193.03125 48.324219 C 192.636719 48.015625 192.222656 47.742188 191.789062 47.503906 C 191.351562 47.261719 190.898438 47.0625 190.425781 46.898438 C 189.957031 46.734375 189.476562 46.613281 188.984375 46.53125 C 188.492188 46.445312 188 46.40625 187.5 46.40625 C 187 46.40625 186.507812 46.445312 186.015625 46.53125 C 185.523438 46.613281 185.042969 46.734375 184.574219 46.898438 C 184.101562 47.0625 183.648438 47.261719 183.210938 47.503906 C 182.777344 47.742188 182.363281 48.015625 181.96875 48.324219 C 181.578125 48.632812 181.214844 48.972656 180.882812 49.339844 C 180.546875 49.710938 180.246094 50.105469 179.976562 50.523438 C 179.710938 50.941406 179.476562 51.382812 179.285156 51.839844 C 179.089844 52.296875 178.933594 52.769531 178.816406 53.253906 L 161.320312 126.421875 C 164.558594 125.070312 167.878906 123.980469 171.285156 123.148438 Z M 253.613281 173.042969 L 321.429688 189.257812 L 253.613281 205.476562 C 252.78125 208.882812 251.691406 212.203125 250.339844 215.4375 L 323.503906 197.945312 C 323.988281 197.828125 324.460938 197.671875 324.917969 197.476562 C 325.378906 197.285156 325.816406 197.050781 326.238281 196.785156 C 326.65625 196.515625 327.050781 196.214844 327.421875 195.878906 C 327.789062 195.546875 328.128906 195.183594 328.4375 194.792969 C 328.746094 194.398438 329.019531 193.984375 329.261719 193.550781 C 329.5 193.113281 329.703125 192.660156 329.863281 192.1875 C 330.027344 191.71875 330.152344 191.234375 330.234375 190.746094 C 330.316406 190.253906 330.359375 189.757812 330.359375 189.261719 C 330.359375 188.761719 330.316406 188.265625 330.234375 187.777344 C 330.152344 187.285156 330.027344 186.804688 329.863281 186.332031 C 329.703125 185.863281 329.5 185.40625 329.261719 184.972656 C 329.019531 184.535156 328.746094 184.121094 328.4375 183.730469 C 328.128906 183.335938 327.789062 182.976562 327.421875 182.640625 C 327.050781 182.304688 326.65625 182.003906 326.238281 181.734375 C 325.816406 181.46875 325.378906 181.238281 324.917969 181.042969 C 324.460938 180.847656 323.988281 180.691406 323.503906 180.574219 L 250.339844 163.082031 C 251.691406 166.316406 252.78125 169.636719 253.613281 173.042969 Z M 336.429688 323.1875 L 196.679688 323.1875 L 213.679688 252.097656 C 210.441406 253.449219 207.121094 254.539062 203.714844 255.371094 L 187.5 323.1875 L 171.285156 255.375 C 167.878906 254.542969 164.558594 253.449219 161.320312 252.097656 L 178.320312 323.1875 L 38.570312 323.1875 C 38.253906 323.144531 37.933594 323.136719 37.617188 323.164062 C 37.296875 323.191406 36.984375 323.25 36.679688 323.34375 C 36.371094 323.4375 36.078125 323.5625 35.796875 323.71875 C 35.519531 323.875 35.257812 324.058594 35.019531 324.269531 C 34.777344 324.480469 34.5625 324.714844 34.371094 324.972656 C 34.179688 325.226562 34.019531 325.503906 33.886719 325.792969 C 33.753906 326.085938 33.65625 326.390625 33.585938 326.703125 C 33.519531 327.015625 33.484375 327.332031 33.484375 327.652344 C 33.484375 327.972656 33.519531 328.289062 33.585938 328.601562 C 33.65625 328.914062 33.753906 329.21875 33.886719 329.507812 C 34.019531 329.800781 34.179688 330.074219 34.371094 330.332031 C 34.5625 330.589844 34.777344 330.824219 35.019531 331.035156 C 35.257812 331.246094 35.519531 331.429688 35.796875 331.585938 C 36.078125 331.742188 36.371094 331.867188 36.679688 331.960938 C 36.984375 332.050781 37.296875 332.113281 37.617188 332.136719 C 37.933594 332.164062 38.253906 332.15625 38.570312 332.117188 L 336.429688 332.117188 C 336.746094 332.15625 337.066406 332.164062 337.382812 332.136719 C 337.703125 332.113281 338.015625 332.050781 338.320312 331.960938 C 338.628906 331.867188 338.921875 331.742188 339.203125 331.585938 C 339.480469 331.429688 339.742188 331.246094 339.980469 331.035156 C 340.222656 330.824219 340.4375 330.589844 340.628906 330.332031 C 340.820312 330.074219 340.980469 329.800781 341.113281 329.507812 C 341.246094 329.21875 341.34375 328.914062 341.414062 328.601562 C 341.480469 328.289062 341.515625 327.972656 341.515625 327.652344 C 341.515625 327.332031 341.480469 327.015625 341.414062 326.703125 C 341.34375 326.390625 341.246094 326.085938 341.113281 325.792969 C 340.980469 325.503906 340.820312 325.226562 340.628906 324.972656 C 340.4375 324.714844 340.222656 324.480469 339.980469 324.269531 C 339.742188 324.058594 339.480469 323.875 339.203125 323.71875 C 338.921875 323.5625 338.628906 323.4375 338.320312 323.34375 C 338.015625 323.25 337.703125 323.191406 337.382812 323.164062 C 337.066406 323.136719 336.746094 323.144531 336.429688 323.1875 Z M 241.070312 35.242188 C 241.511719 35.242188 241.945312 35.199219 242.378906 35.113281 C 242.808594 35.027344 243.226562 34.898438 243.632812 34.730469 C 244.039062 34.5625 244.425781 34.355469 244.792969 34.113281 C 245.15625 33.867188 245.496094 33.589844 245.804688 33.28125 C 246.117188 32.96875 246.394531 32.628906 246.640625 32.265625 C 246.882812 31.898438 247.089844 31.511719 247.257812 31.105469 C 247.425781 30.699219 247.554688 30.28125 247.640625 29.851562 C 247.726562 29.417969 247.769531 28.984375 247.769531 28.542969 C 247.769531 28.105469 247.726562 27.667969 247.640625 27.238281 C 247.554688 26.808594 247.425781 26.386719 247.257812 25.980469 C 247.089844 25.574219 246.882812 25.191406 246.640625 24.824219 C 246.394531 24.457031 246.117188 24.121094 245.804688 23.808594 C 245.496094 23.5 245.15625 23.222656 244.792969 22.976562 C 244.425781 22.734375 244.039062 22.527344 243.632812 22.359375 C 243.226562 22.191406 242.808594 22.0625 242.378906 21.976562 C 241.945312 21.890625 241.511719 21.847656 241.070312 21.847656 C 240.632812 21.847656 240.195312 21.890625 239.765625 21.976562 C 239.332031 22.0625 238.914062 22.191406 238.507812 22.359375 C 238.101562 22.527344 237.714844 22.734375 237.351562 22.976562 C 236.984375 23.222656 236.648438 23.5 236.335938 23.808594 C 236.027344 24.121094 235.746094 24.457031 235.503906 24.824219 C 235.257812 25.191406 235.054688 25.574219 234.882812 25.980469 C 234.714844 26.386719 234.589844 26.808594 234.503906 27.238281 C 234.417969 27.667969 234.375 28.105469 234.375 28.542969 C 234.375 28.984375 234.417969 29.417969 234.503906 29.851562 C 234.589844 30.28125 234.71875 30.699219 234.886719 31.105469 C 235.054688 31.511719 235.261719 31.898438 235.503906 32.261719 C 235.75 32.628906 236.027344 32.96875 236.339844 33.277344 C 236.648438 33.589844 236.988281 33.867188 237.351562 34.109375 C 237.71875 34.355469 238.105469 34.5625 238.511719 34.730469 C 238.914062 34.898438 239.335938 35.023438 239.765625 35.109375 C 240.195312 35.199219 240.632812 35.242188 241.070312 35.242188 Z M 241.070312 25.195312 C 241.515625 25.195312 241.941406 25.28125 242.351562 25.453125 C 242.761719 25.621094 243.125 25.863281 243.4375 26.175781 C 243.753906 26.492188 243.996094 26.851562 244.164062 27.261719 C 244.335938 27.671875 244.417969 28.101562 244.417969 28.542969 C 244.417969 28.988281 244.335938 29.414062 244.164062 29.824219 C 243.996094 30.234375 243.753906 30.597656 243.4375 30.914062 C 243.125 31.226562 242.761719 31.46875 242.351562 31.636719 C 241.941406 31.808594 241.515625 31.894531 241.070312 31.894531 C 240.628906 31.894531 240.199219 31.808594 239.789062 31.636719 C 239.378906 31.46875 239.019531 31.226562 238.703125 30.914062 C 238.390625 30.597656 238.148438 30.234375 237.976562 29.824219 C 237.808594 29.414062 237.722656 28.988281 237.722656 28.542969 C 237.722656 28.101562 237.808594 27.671875 237.980469 27.265625 C 238.148438 26.855469 238.390625 26.492188 238.703125 26.179688 C 239.019531 25.863281 239.378906 25.621094 239.789062 25.453125 C 240.199219 25.28125 240.628906 25.195312 241.070312 25.195312 Z M 337.054688 134.570312 C 336.761719 134.570312 336.46875 134.601562 336.183594 134.65625 C 335.894531 134.714844 335.617188 134.800781 335.34375 134.910156 C 335.074219 135.023438 334.816406 135.160156 334.574219 135.324219 C 334.328125 135.488281 334.105469 135.671875 333.898438 135.878906 C 333.691406 136.085938 333.503906 136.3125 333.339844 136.554688 C 333.179688 136.800781 333.042969 137.054688 332.929688 137.328125 C 332.816406 137.597656 332.730469 137.878906 332.675781 138.164062 C 332.617188 138.453125 332.589844 138.742188 332.589844 139.035156 C 332.589844 139.328125 332.617188 139.621094 332.675781 139.90625 C 332.730469 140.195312 332.816406 140.472656 332.929688 140.742188 C 333.042969 141.015625 333.179688 141.273438 333.339844 141.515625 C 333.503906 141.757812 333.691406 141.984375 333.898438 142.191406 C 334.105469 142.398438 334.328125 142.585938 334.574219 142.746094 C 334.816406 142.910156 335.074219 143.046875 335.34375 143.160156 C 335.617188 143.273438 335.894531 143.355469 336.183594 143.414062 C 336.46875 143.472656 336.761719 143.5 337.054688 143.5 C 337.347656 143.5 337.636719 143.472656 337.925781 143.414062 C 338.210938 143.355469 338.492188 143.273438 338.761719 143.160156 C 339.03125 143.046875 339.289062 142.910156 339.535156 142.746094 C 339.777344 142.585938 340.003906 142.398438 340.210938 142.191406 C 340.417969 141.984375 340.601562 141.757812 340.765625 141.515625 C 340.929688 141.273438 341.066406 141.015625 341.179688 140.742188 C 341.289062 140.472656 341.375 140.195312 341.433594 139.90625 C 341.488281 139.617188 341.519531 139.328125 341.519531 139.035156 C 341.515625 138.742188 341.488281 138.453125 341.429688 138.164062 C 341.375 137.878906 341.289062 137.597656 341.175781 137.328125 C 341.066406 137.058594 340.925781 136.800781 340.765625 136.554688 C 340.601562 136.3125 340.417969 136.085938 340.210938 135.878906 C 340 135.671875 339.777344 135.488281 339.53125 135.324219 C 339.289062 135.164062 339.03125 135.023438 338.761719 134.914062 C 338.492188 134.800781 338.210938 134.714844 337.925781 134.65625 C 337.636719 134.601562 337.347656 134.570312 337.054688 134.570312 Z M 337.054688 141.269531 C 336.757812 141.269531 336.472656 141.210938 336.199219 141.097656 C 335.925781 140.984375 335.683594 140.824219 335.476562 140.613281 C 335.265625 140.40625 335.105469 140.164062 334.992188 139.890625 C 334.878906 139.617188 334.820312 139.332031 334.820312 139.035156 C 334.820312 138.738281 334.878906 138.453125 334.992188 138.179688 C 335.105469 137.90625 335.265625 137.667969 335.476562 137.457031 C 335.683594 137.246094 335.925781 137.085938 336.199219 136.972656 C 336.472656 136.859375 336.757812 136.804688 337.054688 136.804688 C 337.347656 136.804688 337.632812 136.859375 337.90625 136.972656 C 338.179688 137.085938 338.421875 137.246094 338.632812 137.457031 C 338.839844 137.667969 339.003906 137.90625 339.117188 138.179688 C 339.230469 138.453125 339.285156 138.738281 339.285156 139.035156 C 339.285156 139.332031 339.230469 139.617188 339.113281 139.890625 C 339 140.164062 338.839844 140.402344 338.632812 140.613281 C 338.421875 140.824219 338.179688 140.984375 337.90625 141.097656 C 337.632812 141.210938 337.347656 141.265625 337.054688 141.269531 Z M 138.394531 11.632812 C 138.101562 11.632812 137.808594 11.664062 137.523438 11.71875 C 137.234375 11.777344 136.957031 11.863281 136.683594 11.972656 C 136.414062 12.085938 136.15625 12.222656 135.914062 12.386719 C 135.667969 12.550781 135.445312 12.734375 135.234375 12.941406 C 135.027344 13.148438 134.84375 13.375 134.679688 13.617188 C 134.519531 13.863281 134.378906 14.117188 134.269531 14.390625 C 134.15625 14.660156 134.070312 14.941406 134.015625 15.226562 C 133.957031 15.515625 133.929688 15.804688 133.929688 16.097656 C 133.929688 16.390625 133.957031 16.683594 134.015625 16.96875 C 134.070312 17.257812 134.15625 17.535156 134.269531 17.804688 C 134.378906 18.078125 134.519531 18.335938 134.679688 18.578125 C 134.84375 18.820312 135.027344 19.046875 135.234375 19.253906 C 135.445312 19.460938 135.667969 19.648438 135.914062 19.808594 C 136.15625 19.972656 136.414062 20.109375 136.683594 20.222656 C 136.957031 20.335938 137.234375 20.417969 137.523438 20.476562 C 137.808594 20.535156 138.101562 20.5625 138.394531 20.5625 C 138.6875 20.5625 138.976562 20.535156 139.265625 20.476562 C 139.550781 20.417969 139.832031 20.335938 140.101562 20.222656 C 140.371094 20.109375 140.628906 19.972656 140.875 19.808594 C 141.117188 19.648438 141.34375 19.460938 141.550781 19.253906 C 141.757812 19.046875 141.941406 18.820312 142.105469 18.578125 C 142.269531 18.335938 142.40625 18.078125 142.515625 17.804688 C 142.628906 17.535156 142.714844 17.257812 142.769531 16.96875 C 142.828125 16.683594 142.855469 16.390625 142.855469 16.097656 C 142.855469 15.804688 142.828125 15.515625 142.769531 15.226562 C 142.714844 14.941406 142.628906 14.660156 142.515625 14.390625 C 142.402344 14.121094 142.265625 13.863281 142.101562 13.617188 C 141.941406 13.375 141.753906 13.148438 141.546875 12.941406 C 141.339844 12.734375 141.117188 12.550781 140.871094 12.386719 C 140.628906 12.226562 140.371094 12.085938 140.101562 11.976562 C 139.828125 11.863281 139.550781 11.777344 139.261719 11.71875 C 138.976562 11.664062 138.6875 11.632812 138.394531 11.632812 Z M 138.394531 18.332031 C 138.097656 18.332031 137.8125 18.273438 137.539062 18.160156 C 137.265625 18.046875 137.023438 17.886719 136.816406 17.675781 C 136.605469 17.46875 136.445312 17.226562 136.332031 16.953125 C 136.21875 16.679688 136.160156 16.394531 136.160156 16.097656 C 136.160156 15.800781 136.21875 15.515625 136.332031 15.242188 C 136.445312 14.96875 136.605469 14.730469 136.816406 14.519531 C 137.023438 14.308594 137.265625 14.148438 137.539062 14.035156 C 137.8125 13.921875 138.097656 13.867188 138.394531 13.867188 C 138.6875 13.867188 138.972656 13.921875 139.246094 14.035156 C 139.519531 14.148438 139.761719 14.308594 139.972656 14.519531 C 140.179688 14.730469 140.34375 14.96875 140.453125 15.242188 C 140.566406 15.515625 140.625 15.800781 140.625 16.097656 C 140.625 16.394531 140.566406 16.679688 140.453125 16.953125 C 140.339844 17.226562 140.179688 17.464844 139.96875 17.675781 C 139.761719 17.886719 139.519531 18.046875 139.246094 18.160156 C 138.972656 18.273438 138.6875 18.328125 138.394531 18.332031 Z M 341.519531 11.632812 C 341.226562 11.632812 340.933594 11.664062 340.648438 11.71875 C 340.359375 11.777344 340.082031 11.863281 339.808594 11.972656 C 339.539062 12.085938 339.28125 12.222656 339.039062 12.386719 C 338.792969 12.550781 338.570312 12.734375 338.359375 12.941406 C 338.152344 13.148438 337.96875 13.375 337.804688 13.617188 C 337.644531 13.863281 337.503906 14.117188 337.394531 14.390625 C 337.28125 14.660156 337.195312 14.941406 337.140625 15.226562 C 337.082031 15.515625 337.054688 15.804688 337.054688 16.097656 C 337.054688 16.390625 337.082031 16.683594 337.140625 16.96875 C 337.195312 17.257812 337.28125 17.535156 337.394531 17.804688 C 337.503906 18.078125 337.644531 18.335938 337.804688 18.578125 C 337.96875 18.820312 338.152344 19.046875 338.359375 19.253906 C 338.570312 19.460938 338.792969 19.648438 339.039062 19.808594 C 339.28125 19.972656 339.539062 20.109375 339.808594 20.222656 C 340.082031 20.335938 340.359375 20.417969 340.648438 20.476562 C 340.933594 20.535156 341.226562 20.5625 341.519531 20.5625 C 341.8125 20.5625 342.101562 20.535156 342.390625 20.476562 C 342.675781 20.417969 342.957031 20.335938 343.226562 20.222656 C 343.496094 20.109375 343.753906 19.972656 343.996094 19.808594 C 344.242188 19.648438 344.46875 19.460938 344.675781 19.253906 C 344.882812 19.046875 345.066406 18.820312 345.230469 18.578125 C 345.394531 18.335938 345.53125 18.078125 345.640625 17.804688 C 345.753906 17.535156 345.839844 17.257812 345.894531 16.96875 C 345.953125 16.683594 345.980469 16.390625 345.980469 16.097656 C 345.980469 15.804688 345.953125 15.515625 345.894531 15.226562 C 345.839844 14.941406 345.753906 14.660156 345.640625 14.390625 C 345.527344 14.121094 345.390625 13.863281 345.226562 13.617188 C 345.066406 13.375 344.878906 13.148438 344.671875 12.941406 C 344.464844 12.734375 344.242188 12.550781 343.996094 12.386719 C 343.753906 12.226562 343.496094 12.085938 343.226562 11.976562 C 342.953125 11.863281 342.675781 11.777344 342.386719 11.71875 C 342.101562 11.664062 341.8125 11.632812 341.519531 11.632812 Z M 341.519531 18.332031 C 341.222656 18.332031 340.9375 18.273438 340.664062 18.160156 C 340.390625 18.046875 340.148438 17.886719 339.9375 17.675781 C 339.730469 17.46875 339.570312 17.226562 339.457031 16.953125 C 339.34375 16.679688 339.285156 16.394531 339.285156 16.097656 C 339.285156 15.800781 339.34375 15.515625 339.457031 15.242188 C 339.570312 14.96875 339.730469 14.730469 339.9375 14.519531 C 340.148438 14.308594 340.390625 14.148438 340.664062 14.035156 C 340.9375 13.921875 341.222656 13.867188 341.519531 13.867188 C 341.8125 13.867188 342.097656 13.921875 342.371094 14.035156 C 342.644531 14.148438 342.886719 14.308594 343.097656 14.519531 C 343.304688 14.730469 343.464844 14.96875 343.578125 15.242188 C 343.691406 15.515625 343.75 15.800781 343.75 16.097656 C 343.75 16.394531 343.691406 16.679688 343.578125 16.953125 C 343.464844 17.226562 343.304688 17.464844 343.09375 17.675781 C 342.886719 17.886719 342.644531 18.046875 342.371094 18.160156 C 342.097656 18.273438 341.8125 18.328125 341.519531 18.332031 Z M 73.660156 64.257812 C 73.660156 63.964844 73.632812 63.675781 73.574219 63.386719 C 73.519531 63.101562 73.433594 62.820312 73.320312 62.550781 C 73.207031 62.28125 73.070312 62.023438 72.910156 61.777344 C 72.746094 61.535156 72.558594 61.308594 72.351562 61.101562 C 72.144531 60.894531 71.921875 60.710938 71.675781 60.546875 C 71.433594 60.382812 71.175781 60.246094 70.90625 60.132812 C 70.632812 60.023438 70.355469 59.9375 70.066406 59.878906 C 69.78125 59.824219 69.488281 59.792969 69.195312 59.792969 C 68.902344 59.792969 68.613281 59.824219 68.324219 59.878906 C 68.039062 59.9375 67.757812 60.023438 67.488281 60.132812 C 67.21875 60.246094 66.960938 60.382812 66.714844 60.546875 C 66.472656 60.710938 66.246094 60.894531 66.039062 61.101562 C 65.832031 61.308594 65.648438 61.535156 65.484375 61.777344 C 65.320312 62.023438 65.183594 62.28125 65.070312 62.550781 C 64.960938 62.820312 64.875 63.101562 64.816406 63.386719 C 64.761719 63.675781 64.730469 63.964844 64.730469 64.257812 C 64.730469 64.550781 64.761719 64.84375 64.816406 65.128906 C 64.875 65.417969 64.960938 65.695312 65.070312 65.96875 C 65.183594 66.238281 65.320312 66.496094 65.484375 66.738281 C 65.648438 66.984375 65.832031 67.207031 66.039062 67.414062 C 66.246094 67.621094 66.472656 67.808594 66.714844 67.972656 C 66.960938 68.132812 67.21875 68.269531 67.488281 68.382812 C 67.757812 68.496094 68.039062 68.582031 68.324219 68.636719 C 68.613281 68.695312 68.902344 68.722656 69.195312 68.722656 C 69.488281 68.722656 69.78125 68.695312 70.066406 68.636719 C 70.355469 68.578125 70.632812 68.496094 70.902344 68.382812 C 71.175781 68.269531 71.433594 68.132812 71.675781 67.96875 C 71.917969 67.804688 72.144531 67.621094 72.351562 67.414062 C 72.558594 67.207031 72.742188 66.980469 72.90625 66.738281 C 73.070312 66.496094 73.207031 66.238281 73.320312 65.964844 C 73.433594 65.695312 73.515625 65.417969 73.574219 65.128906 C 73.632812 64.84375 73.660156 64.550781 73.660156 64.257812 Z M 66.964844 64.257812 C 66.964844 63.964844 67.019531 63.679688 67.132812 63.40625 C 67.246094 63.132812 67.410156 62.890625 67.617188 62.679688 C 67.828125 62.472656 68.070312 62.308594 68.34375 62.195312 C 68.617188 62.082031 68.902344 62.027344 69.195312 62.027344 C 69.492188 62.027344 69.777344 62.082031 70.050781 62.195312 C 70.324219 62.308594 70.566406 62.472656 70.773438 62.679688 C 70.984375 62.890625 71.144531 63.132812 71.257812 63.40625 C 71.371094 63.679688 71.429688 63.964844 71.429688 64.257812 C 71.429688 64.554688 71.371094 64.839844 71.257812 65.113281 C 71.144531 65.386719 70.984375 65.628906 70.773438 65.835938 C 70.566406 66.046875 70.324219 66.207031 70.050781 66.320312 C 69.777344 66.433594 69.492188 66.492188 69.195312 66.492188 C 68.902344 66.492188 68.617188 66.433594 68.34375 66.320312 C 68.070312 66.207031 67.828125 66.046875 67.617188 65.835938 C 67.410156 65.628906 67.25 65.386719 67.136719 65.113281 C 67.019531 64.839844 66.964844 64.554688 66.964844 64.257812 Z M 66.964844 64.257812 " fill-opacity="1" fill-rule="nonzero"/><path fill="#004aad" d="M 24.304688 155.804688 L 27.621094 151.4375 L 25.527344 150.25 L 23.394531 155.136719 L 23.324219 155.136719 L 21.160156 150.285156 L 19.027344 151.507812 L 22.3125 155.769531 L 22.3125 155.839844 L 17.175781 155.175781 L 17.175781 157.550781 L 22.347656 156.886719 L 22.347656 156.957031 L 19.027344 161.214844 L 21.019531 162.472656 L 23.289062 157.550781 L 23.359375 157.550781 L 25.457031 162.4375 L 27.65625 161.179688 L 24.304688 156.992188 L 24.304688 156.917969 L 29.574219 157.550781 L 29.574219 155.175781 L 24.304688 155.871094 Z M 22.785156 19.960938 L 20.871094 22.414062 L 22.019531 23.136719 L 23.328125 20.300781 L 23.367188 20.300781 L 24.574219 23.117188 L 25.839844 22.394531 L 23.910156 19.976562 L 23.910156 19.9375 L 26.945312 20.300781 L 26.945312 18.933594 L 23.910156 19.335938 L 23.910156 19.292969 L 25.820312 16.78125 L 24.613281 16.097656 L 23.386719 18.914062 L 23.347656 18.914062 L 22.101562 16.117188 L 20.871094 16.820312 L 22.761719 19.273438 L 22.761719 19.316406 L 19.804688 18.933594 L 19.804688 20.300781 L 22.785156 19.917969 Z M 367.6875 79.535156 L 367.6875 77.207031 L 362.515625 77.894531 L 362.515625 77.824219 L 365.773438 73.542969 L 363.714844 72.378906 L 361.628906 77.171875 L 361.554688 77.171875 L 359.433594 72.410156 L 357.339844 73.613281 L 360.566406 77.789062 L 360.566406 77.859375 L 355.527344 77.207031 L 355.527344 79.535156 L 360.597656 78.886719 L 360.597656 78.957031 L 357.339844 83.132812 L 359.292969 84.367188 L 361.523438 79.535156 L 361.589844 79.535156 L 363.644531 84.332031 L 365.804688 83.101562 L 362.515625 78.988281 L 362.515625 78.917969 Z M 292.320312 83.894531 L 295.128906 80.199219 L 293.355469 79.195312 L 291.554688 83.332031 L 291.496094 83.332031 L 289.664062 79.226562 L 287.859375 80.257812 L 290.636719 83.867188 L 290.636719 83.925781 L 286.292969 83.363281 L 286.292969 85.371094 L 290.667969 84.808594 L 290.667969 84.871094 L 287.859375 88.472656 L 289.542969 89.539062 L 291.464844 85.371094 L 291.523438 85.371094 L 293.296875 89.507812 L 295.160156 88.445312 L 292.320312 84.898438 L 292.320312 84.839844 L 296.785156 85.371094 L 296.785156 83.363281 L 292.320312 83.953125 Z M 292.320312 83.894531 " fill-opacity="1" fill-rule="nonzero"/></svg>